<svg width="374.63153076171875px" height="84.81351318359374px" xmlns="http://www.w3.org/2000/svg" viewBox="62.684234619140625 32.59324340820313 374.63153076171875 84.81351318359374" style="background: rgba(0, 0, 0, 0);" preserveAspectRatio="xMidYMid"><defs><filter id="editing-extrusion" x="-100%" y="-100%" width="300%" height="300%"><feFlood result="color1" flood-color="#444"></feFlood><feConvolveMatrix order="8,8" divisor="1" kernelMatrix="1 0 0 0 0 0 0 0 0 1 0 0 0 0 0 0 0 0 1 0 0 0 0 0 0 0 0 1 0 0 0 0 0 0 0 0 1 0 0 0 0 0 0 0 0 1 0 0 0 0 0 0 0 0 1 0 0 0 0 0 0 0 0 1" in="SourceAlpha" result="extrude"></feConvolveMatrix><feComposite in="color1" in2="extrude" result="comp-extrude" operator="in"></feComposite><feOffset dx="4" dy="4" in="comp-extrude" result="offset-extrude"></feOffset><feMerge><feMergeNode in="offset-extrude"></feMergeNode><feMergeNode in="SourceGraphic"></feMergeNode></feMerge></filter></defs><g filter="url(#editing-extrusion)"><g transform="translate(44.727818578481674, 104.43218803405762)"><path d="M24.96-4.80L24.96-4.80L24.96-4.80Q24.96-9.28 26.75-18.24L26.75-18.24L17.28-18.24L13.76 0L0.38 0L8.51-42.24L22.02-42.24L18.30-23.36L27.78-23.36L31.30-42.24L44.80-42.24L44.80-42.24Q43.90-37.50 42.75-32.19L42.75-32.19L40.58-21.76L40.58-21.76Q38.14-9.60 38.14-4.29L38.14-4.29L38.14-4.29Q38.14-2.11 38.85-0.90L38.85-0.90L38.85-0.90Q35.65 1.28 31.90 1.28L31.90 1.28L31.90 1.28Q28.16 1.28 26.56-0.51L26.56-0.51L26.56-0.51Q24.96-2.30 24.96-4.80ZM62.85-30.34L62.85-30.34L62.85-30.34Q66.30-33.92 73.60-33.92L73.60-33.92L73.60-33.92Q77.63-33.92 79.84-31.78L79.84-31.78L79.84-31.78Q82.05-29.63 82.05-25.70L82.05-25.70L82.05-25.70Q82.05-21.76 79.84-18.98L79.84-18.98L79.84-18.98Q77.63-16.19 73.54-15.04L73.54-15.04L73.54-15.04Q73.86-13.76 74.30-12.42L74.30-12.42L75.20-9.86L75.20-9.86Q76.42-6.59 77.38-5.44L77.38-5.44L77.38-5.44Q78.34-4.29 79.62-3.90L79.62-3.90L79.62-3.90Q78.91-1.28 76.35 0.13L76.35 0.13L76.35 0.13Q74.30 1.28 71.49 1.28L71.49 1.28L71.49 1.28Q63.23 1.28 62.14-11.46L62.14-11.46L62.14-11.46Q61.95-13.25 61.95-15.04L61.95-15.04L61.95-15.04Q65.15-15.94 67.39-18.94L67.39-18.94L67.39-18.94Q69.63-21.95 69.63-25.47L69.63-25.47L69.63-25.47Q69.63-28.99 67.14-28.99L67.14-28.99L67.14-28.99Q65.34-28.99 63.94-27.01L63.94-27.01L63.94-27.01Q62.53-25.02 61.89-21.63L61.89-21.63L57.66 0L44.74 1.28L53.70-44.80L66.56-46.08L65.09-38.46L65.09-38.46Q64.13-33.09 62.85-30.34ZM117.06-16.83L117.06-16.83L117.06-16.83Q117.76-15.49 117.76-12.86L117.76-12.86L117.76-12.86Q117.76-10.24 115.81-8.42L115.81-8.42L115.81-8.42Q113.86-6.59 109.57-6.59L109.57-6.59L109.18-6.59L108.16 0L108.16 0Q106.43 1.28 103.36 1.28L103.36 1.28L103.36 1.28Q99.39 1.28 98.11-1.15L98.11-1.15L98.11-1.15Q97.60-2.05 97.60-2.82L97.60-2.82L97.60-2.82Q97.60-3.71 97.73-4.74L97.73-4.74L98.18-7.17L83.46-8.70L83.46-16.77L107.39-43.58L107.39-43.52L107.46-43.58L116.35-42.62L116.35-42.62Q113.34-30.34 110.78-16.19L110.78-16.19L112.26-16.19L112.26-16.19Q115.90-16.19 117.06-16.83ZM104.19-32.83L90.30-16.64L99.97-16.32L99.97-16.32Q102.08-25.73 104.19-32.83L104.19-32.83ZM152.32-26.62L152.32-26.62L152.32-26.62Q152.32-23.94 150.08-22.27L150.08-22.27L150.08-22.27Q147.84-20.61 144.19-20.61L144.19-20.61L144.19-20.61Q142.66-20.61 141.76-21.06L141.76-21.06L141.76-21.06Q142.46-22.72 142.69-24.80L142.69-24.80L142.69-24.80Q142.91-26.88 142.91-27.46L142.91-27.46L142.91-27.46Q142.91-30.14 141.06-30.14L141.06-30.14L141.06-30.14Q139.78-30.14 138.34-28.54L138.34-28.54L138.34-28.54Q136.90-26.94 135.68-24.45L135.68-24.45L135.68-24.45Q132.99-18.69 132.99-12.86L132.99-12.86L132.99-12.86Q132.99-9.66 134.21-8.22L134.21-8.22L134.21-8.22Q135.42-6.78 138.11-6.78L138.11-6.78L138.11-6.78Q141.82-6.78 144.77-9.86L144.77-9.86L144.77-9.86Q145.60-10.82 146.05-11.90L146.05-11.90L146.05-11.90Q148.48-10.62 148.48-7.10L148.48-7.10L148.48-7.10Q148.48-3.52 144.51-1.15L144.51-1.15L144.51-1.15Q140.42 1.28 133.89 1.28L133.89 1.28L133.89 1.28Q120.90 1.28 120.90-12.48L120.90-12.48L120.90-12.48Q120.90-22.53 126.59-28.29L126.59-28.29L126.59-28.29Q132.10-33.92 142.21-33.92L142.21-33.92L142.21-33.92Q152.32-33.92 152.32-26.62ZM174.08-17.98L174.08-17.98L174.08-17.98Q176.38-22.08 176.38-26.24L176.38-26.24L176.38-26.24Q176.38-28.99 174.40-28.99L174.40-28.99L174.40-28.99Q172.86-28.99 171.26-26.37L171.26-26.37L171.26-26.37Q169.60-23.74 169.09-20.35L169.09-20.35L165.76 0L152.51 1.28L159.04-32.64L169.60-33.92L168.45-27.46L168.45-27.46Q171.58-33.92 178.62-33.92L178.62-33.92L178.62-33.92Q182.34-33.92 184.35-32L184.35-32L184.35-32Q186.37-30.08 186.37-26.14L186.37-26.14L186.37-26.14Q186.37-22.21 183.78-19.71L183.78-19.71L183.78-19.71Q181.18-17.22 176.77-17.22L176.77-17.22L176.77-17.22Q174.85-17.22 174.08-17.98ZM217.22-4.38L217.22-4.38L217.22-4.38Q214.53-1.66 210.85-0.19L210.85-0.19L210.85-0.19Q207.17 1.28 203.52 1.28L203.52 1.28L203.52 1.28Q199.87 1.28 198.59 0.64L198.59 0.64L196.61 11.52L183.62 12.80L192.45-32.64L202.88-33.73L202.05-29.31L202.05-29.31Q204.74-33.86 210.30-33.86L210.30-33.86L210.30-33.86Q216.58-33.86 219.90-29.82L219.90-29.82L219.90-29.82Q222.85-26.18 222.85-20.61L222.85-20.61L222.85-20.61Q222.85-15.04 221.38-11.07L221.38-11.07L221.38-11.07Q219.90-7.10 217.22-4.38ZM202.75-22.34L199.36-3.58L199.36-3.58Q200.70-2.43 202.37-2.43L202.37-2.43L202.37-2.43Q204.03-2.43 204.99-3.07L204.99-3.07L204.99-3.07Q205.95-3.71 206.66-4.99L206.66-4.99L206.66-4.99Q208.58-8.45 210.11-18.94L210.11-18.94L210.11-18.94Q210.56-22.02 210.56-25.02L210.56-25.02L210.56-25.02Q210.56-28.03 209.89-28.99L209.89-28.99L209.89-28.99Q209.22-29.95 207.94-29.95L207.94-29.95L207.94-29.95Q204.03-29.95 202.75-22.34L202.75-22.34ZM246.72-17.98L246.72-17.98L246.72-17.98Q249.02-22.08 249.02-26.24L249.02-26.24L249.02-26.24Q249.02-28.99 247.04-28.99L247.04-28.99L247.04-28.99Q245.50-28.99 243.90-26.37L243.90-26.37L243.90-26.37Q242.24-23.74 241.73-20.35L241.73-20.35L238.40 0L225.15 1.28L231.68-32.64L242.24-33.92L241.09-27.46L241.09-27.46Q244.22-33.92 251.26-33.92L251.26-33.92L251.26-33.92Q254.98-33.92 256.99-32L256.99-32L256.99-32Q259.01-30.08 259.01-26.14L259.01-26.14L259.01-26.14Q259.01-22.21 256.42-19.71L256.42-19.71L256.42-19.71Q253.82-17.22 249.41-17.22L249.41-17.22L249.41-17.22Q247.49-17.22 246.72-17.98ZM262.82-1.92L262.82-1.92L262.82-1.92Q261.31-3.58 260.64-6.21L260.64-6.21L260.64-6.21Q259.97-8.83 259.97-13.12L259.97-13.12L259.97-13.12Q259.97-17.41 261.44-21.31L261.44-21.31L261.44-21.31Q262.91-25.22 265.60-28.03L265.60-28.03L265.60-28.03Q271.10-33.92 280.19-33.92L280.19-33.92L280.19-33.92Q283.46-33.92 285.82-32.83L285.82-32.83L296.77-33.92L292.03-8.96L292.03-8.96Q291.84-8.19 291.84-6.78L291.84-6.78L291.84-6.78Q291.84-5.38 292.70-4.48L292.70-4.48L292.70-4.48Q293.57-3.58 294.85-3.46L294.85-3.46L294.85-3.46Q294.21-1.28 291.87 0L291.87 0L291.87 0Q289.54 1.28 286.91 1.28L286.91 1.28L286.91 1.28Q284.29 1.28 282.53 0.29L282.53 0.29L282.53 0.29Q280.77-0.70 280.26-2.37L280.26-2.37L280.26-2.37Q279.23-0.77 277.06 0.26L277.06 0.26L277.06 0.26Q274.88 1.28 271.97 1.28L271.97 1.28L271.97 1.28Q269.06 1.28 266.69 0.51L266.69 0.51L266.69 0.51Q264.32-0.26 262.82-1.92ZM276.32-27.90L276.32-27.90L276.32-27.90Q275.58-26.75 274.94-24.80L274.94-24.80L274.94-24.80Q274.30-22.85 273.25-17.63L273.25-17.63L273.25-17.63Q272.19-12.42 272.19-8.70L272.19-8.70L272.19-8.70Q272.19-4.99 272.77-3.90L272.77-3.90L272.77-3.90Q273.34-2.82 274.37-2.82L274.37-2.82L274.37-2.82Q276.42-2.82 277.92-4.77L277.92-4.77L277.92-4.77Q279.42-6.72 280.00-10.18L280.00-10.18L283.39-28.93L283.39-28.93Q282.05-30.08 280.48-30.08L280.48-30.08L280.48-30.08Q278.91-30.08 277.98-29.57L277.98-29.57L277.98-29.57Q277.06-29.06 276.32-27.90ZM319.36-22.46L319.36-22.46L319.36-22.46Q320.26-24.83 320.26-26.88L320.26-26.88L320.26-26.88Q320.26-30.66 317.18-30.66L317.18-30.66L317.18-30.66Q315.58-30.66 314.27-29.22L314.27-29.22L314.27-29.22Q312.96-27.78 312.96-25.98L312.96-25.98L312.96-25.98Q312.96-24.70 313.98-23.68L313.98-23.68L313.98-23.68Q315.46-22.27 319.23-19.97L319.23-19.97L319.23-19.97Q323.01-17.66 324.45-15.78L324.45-15.78L324.45-15.78Q325.89-13.89 325.89-11.30L325.89-11.30L325.89-11.30Q325.89-8.70 324.64-6.34L324.64-6.34L324.64-6.34Q323.39-3.97 321.15-2.30L321.15-2.30L321.15-2.30Q316.35 1.28 308.67 1.28L308.67 1.28L308.67 1.28Q304.51 1.28 301.31-0.90L301.31-0.90L301.31-0.90Q298.11-3.01 298.11-5.50L298.11-5.50L298.11-5.50Q298.11-8 299.94-9.47L299.94-9.47L299.94-9.47Q301.76-10.94 304.45-10.94L304.45-10.94L304.45-10.94Q307.14-10.94 308.80-9.92L308.80-9.92L308.80-9.92Q307.97-7.81 307.97-6.40L307.97-6.40L307.97-6.40Q307.97-2.18 311.55-2.18L311.55-2.18L311.55-2.18Q313.09-2.18 314.11-3.14L314.11-3.14L314.11-3.14Q315.14-4.10 315.14-5.76L315.14-5.76L315.14-5.76Q315.14-9.02 309.63-12.48L309.63-12.48L309.63-12.48Q305.15-15.42 304.13-16.58L304.13-16.58L304.13-16.58Q302.40-18.62 302.40-21.18L302.40-21.18L302.40-21.18Q302.40-23.74 303.62-26.18L303.62-26.18L303.62-26.18Q304.83-28.61 307.07-30.34L307.07-30.34L307.07-30.34Q311.74-33.92 319.87-33.92L319.87-33.92L319.87-33.92Q324.03-33.92 326.50-32.26L326.50-32.26L326.50-32.26Q328.96-30.59 328.96-27.78L328.96-27.78L328.96-27.78Q328.96-24.96 327.26-23.36L327.26-23.36L327.26-23.36Q325.57-21.76 322.50-21.76L322.50-21.76L322.50-21.76Q320.38-21.76 319.36-22.46ZM334.11-1.92L334.11-1.92L334.11-1.92Q332.61-3.58 331.94-6.21L331.94-6.21L331.94-6.21Q331.26-8.83 331.26-13.12L331.26-13.12L331.26-13.12Q331.26-17.41 332.74-21.31L332.74-21.31L332.74-21.31Q334.21-25.22 336.90-28.03L336.90-28.03L336.90-28.03Q342.40-33.92 351.49-33.92L351.49-33.92L351.49-33.92Q354.75-33.92 357.12-32.83L357.12-32.83L368.06-33.92L363.33-8.96L363.33-8.96Q363.14-8.19 363.14-6.78L363.14-6.78L363.14-6.78Q363.14-5.38 364.00-4.48L364.00-4.48L364.00-4.48Q364.86-3.58 366.14-3.46L366.14-3.46L366.14-3.46Q365.50-1.28 363.17 0L363.17 0L363.17 0Q360.83 1.28 358.21 1.28L358.21 1.28L358.21 1.28Q355.58 1.28 353.82 0.29L353.82 0.29L353.82 0.29Q352.06-0.70 351.55-2.37L351.55-2.37L351.55-2.37Q350.53-0.77 348.35 0.26L348.35 0.26L348.35 0.26Q346.18 1.28 343.26 1.28L343.26 1.28L343.26 1.28Q340.35 1.28 337.98 0.51L337.98 0.51L337.98 0.51Q335.62-0.26 334.11-1.92ZM347.62-27.90L347.62-27.90L347.62-27.90Q346.88-26.75 346.24-24.80L346.24-24.80L346.24-24.80Q345.60-22.85 344.54-17.63L344.54-17.63L344.54-17.63Q343.49-12.42 343.49-8.70L343.49-8.70L343.49-8.70Q343.49-4.99 344.06-3.90L344.06-3.90L344.06-3.90Q344.64-2.82 345.66-2.82L345.66-2.82L345.66-2.82Q347.71-2.82 349.22-4.77L349.22-4.77L349.22-4.77Q350.72-6.72 351.30-10.18L351.30-10.18L354.69-28.93L354.69-28.93Q353.34-30.08 351.78-30.08L351.78-30.08L351.78-30.08Q350.21-30.08 349.28-29.57L349.28-29.57L349.28-29.57Q348.35-29.06 347.62-27.90ZM391.42-33.92L391.42-33.92L391.42-33.92Q393.73-33.92 395.52-33.41L395.52-33.41L395.52-33.41Q395.58-33.66 395.71-34.37L395.71-34.37L396.03-36.35L396.03-36.35Q396.29-37.63 396.67-39.74L396.67-39.74L397.70-44.80L410.43-46.08L403.33-8.96L403.33-8.96Q403.26-8.58 403.26-7.94L403.26-7.94L403.26-6.91L403.26-6.91Q403.26-5.50 403.97-4.45L403.97-4.45L403.97-4.45Q404.67-3.39 405.82-3.39L405.82-3.39L405.82-3.39Q404.54-0.38 400.64 0.90L400.64 0.90L400.64 0.90Q399.30 1.28 397.41 1.28L397.41 1.28L397.41 1.28Q395.52 1.28 393.79 0.29L393.79 0.29L393.79 0.29Q392.06-0.70 391.55-2.37L391.55-2.37L391.55-2.37Q390.53-0.70 388.48 0.29L388.48 0.29L388.48 0.29Q386.43 1.28 383.46 1.28L383.46 1.28L383.46 1.28Q380.48 1.28 378.02 0.51L378.02 0.51L378.02 0.51Q375.55-0.26 374.02-1.92L374.02-1.92L374.02-1.92Q371.20-5.18 371.20-12.61L371.20-12.61L371.20-12.61Q371.20-22.21 376.83-28.03L376.83-28.03L376.83-28.03Q382.46-33.92 391.42-33.92ZM390.98-30.08L390.98-30.08L390.98-30.08Q388.61-30.08 387.33-27.52L387.33-27.52L387.33-27.52Q386.05-24.96 384.74-18.62L384.74-18.62L384.74-18.62Q383.42-12.29 383.42-6.59L383.42-6.59L383.42-6.59Q383.42-2.69 385.73-2.69L385.73-2.69L385.73-2.69Q387.78-2.69 389.22-4.74L389.22-4.74L389.22-4.74Q390.66-6.78 391.23-10.18L391.23-10.18L394.69-28.93L394.69-28.93Q393.34-30.08 390.98-30.08Z" fill="#ccc"></path></g></g><style>text {
  font-size: 64px;
  font-family: Arial Black;
  dominant-baseline: central;
  text-anchor: middle;
}</style></svg>