<?xml version="1.0" encoding="utf-8"?>
<svg xmlns="http://www.w3.org/2000/svg" style="margin: auto; background: none; display: block; shape-rendering: auto;" width="286" height="250" preserveAspectRatio="xMidYMid">
<style type="text/css">
  text {
    text-anchor: middle; font-size: 33px; opacity: 0;
  }
</style>
<g style="transform-origin: 143px 125px; transform: scale(0.4125);">
<g transform="translate(143,125)">
  <g transform="translate(0,0)"><g class="path" style="opacity: 1; transform-origin: -252.145px -3.79153px; animation: 1s linear -0.6s infinite normal forwards running fade-2bf65c81-88d0-447f-b577-0457dc66084e;"><path d="M21.88-24.53L21.88 0L6.37 0L6.37-56.25L21.88-56.25L21.88-31.68L42.42-31.68L42.42-56.25L57.93-56.25L57.93 0L42.42 0L42.42-24.53L21.88-24.53" fill="#51cacc" stroke="none" stroke-width="none" transform="translate(-284.2950134277344,24.33347270618785)" style="fill: rgb(81, 202, 204);"></path></g><g class="path" style="opacity: 1; transform-origin: -192.77px -6.52653px; animation: 1s linear -0.54s infinite normal forwards running fade-2bf65c81-88d0-447f-b577-0457dc66084e;"><path d="M82.58-15.16L82.58 0L69.38 0L69.38-61.72L82.58-61.72L82.58-21.21L82.58-21.21Q85.82-23.55 88.96-26.37L88.96-26.37L88.96-26.37Q92.11-29.18 94.96-32.29L94.96-32.29L94.96-32.29Q97.81-35.39 100.25-38.63L100.25-38.63L100.25-38.63Q102.70-41.88 104.53-45.12L104.53-45.12L113.52-45.12L113.52-45.12Q110.78-40.51 107.03-35.92L107.03-35.92L107.03-35.92Q103.28-31.33 98.87-27.15L98.87-27.15L113.67 0L99.10 0L88.59-18.83L88.59-18.83Q85.66-16.84 82.58-15.16L82.58-15.16" fill="#51cacc" stroke="none" stroke-width="none" transform="translate(-284.2950134277344,24.33347270618785)" style="fill: rgb(157, 248, 113);"></path></g><g class="path" style="opacity: 1; transform-origin: -142.495px -3.79153px; animation: 1s linear -0.48s infinite normal forwards running fade-2bf65c81-88d0-447f-b577-0457dc66084e;"><path d="M167.58-19.96L167.58-12.81L163.67-12.81L163.67 0L148.16 0L148.16-12.81L116.02-12.81L116.02-12.81Q117.07-17.30 118.75-21.99L118.75-21.99L118.75-21.99Q120.43-26.68 122.56-31.25L122.56-31.25L122.56-31.25Q124.69-35.82 127.19-40.20L127.19-40.20L127.19-40.20Q129.69-44.57 132.42-48.44L132.42-48.44L143.24-48.44L143.24-48.44Q139.88-42.85 137.64-37.73L137.64-37.73L137.64-37.73Q135.39-32.62 134.02-28.63L134.02-28.63L134.02-28.63Q132.42-23.98 131.52-19.96L131.52-19.96L148.16-19.96L148.16-56.25L163.67-56.25L163.67-19.96L167.58-19.96" fill="#51cacc" stroke="none" stroke-width="none" transform="translate(-284.2950134277344,24.33347270618785)" style="fill: rgb(224, 255, 119);"></path></g><g class="path" style="opacity: 1; transform-origin: -88.065px 1.67847px; animation: 1s linear -0.42s infinite normal forwards running fade-2bf65c81-88d0-447f-b577-0457dc66084e;"><path d="M218.36-33.95L218.36-33.95L212.66-31.68L212.66-31.68Q211.29-35.98 208.09-38.28L208.09-38.28L208.09-38.28Q204.88-40.59 200.39-40.59L200.39-40.59L200.39-40.59Q197.97-40.59 196.07-39.82L196.07-39.82L196.07-39.82Q194.18-39.06 192.75-37.73L192.75-37.73L192.75-37.73Q191.33-36.41 190.33-34.65L190.33-34.65L190.33-34.65Q189.34-32.89 188.71-30.90L188.71-30.90L188.71-30.90Q188.09-28.91 187.81-26.78L187.81-26.78L187.81-26.78Q187.54-24.65 187.54-22.66L187.54-22.66L187.54-22.66Q187.54-20.51 187.77-18.32L187.77-18.32L187.77-18.32Q188.01-16.13 188.57-14.12L188.57-14.12L188.57-14.12Q189.14-12.11 190.08-10.37L190.08-10.37L190.08-10.37Q191.02-8.63 192.44-7.34L192.44-7.34L192.44-7.34Q193.87-6.05 195.84-5.31L195.84-5.31L195.84-5.31Q197.81-4.57 200.39-4.57L200.39-4.57L200.39-4.57Q202.46-4.57 204.34-5.20L204.34-5.20L204.34-5.20Q206.21-5.82 207.77-6.95L207.77-6.95L207.77-6.95Q209.34-8.09 210.55-9.65L210.55-9.65L210.55-9.65Q211.76-11.21 212.46-13.13L212.46-13.13L218.20-11.02L218.20-11.02Q216.91-7.93 214.79-5.68L214.79-5.68L214.79-5.68Q212.66-3.44 209.96-1.97L209.96-1.97L209.96-1.97Q207.27-0.51 204.18 0.20L204.18 0.20L204.18 0.20Q201.09 0.90 197.93 0.90L197.93 0.90L197.93 0.90Q192.81 0.90 188.44-0.84L188.44-0.84L188.44-0.84Q184.06-2.58 180.88-5.72L180.88-5.72L180.88-5.72Q177.70-8.87 175.90-13.18L175.90-13.18L175.90-13.18Q174.10-17.50 174.10-22.66L174.10-22.66L174.10-22.66Q174.10-27.85 175.88-32.19L175.88-32.19L175.88-32.19Q177.66-36.52 180.82-39.65L180.82-39.65L180.82-39.65Q183.98-42.77 188.36-44.49L188.36-44.49L188.36-44.49Q192.73-46.21 197.93-46.21L197.93-46.21L197.93-46.21Q201.21-46.21 204.34-45.49L204.34-45.49L204.34-45.49Q207.46-44.77 210.14-43.26L210.14-43.26L210.14-43.26Q212.81-41.76 214.94-39.45L214.94-39.45L214.94-39.45Q217.07-37.15 218.36-33.95" fill="#51cacc" stroke="none" stroke-width="none" transform="translate(-284.2950134277344,24.33347270618785)" style="fill: rgb(222, 157, 214);"></path></g><g class="path" style="opacity: 1; transform-origin: -38.945px 1.22847px; animation: 1s linear -0.36s infinite normal forwards running fade-2bf65c81-88d0-447f-b577-0457dc66084e;"><path d="M264.53-41.13L264.53-41.13L257.11-28.83L257.11-28.83Q256.64-30.39 255.90-32.34L255.90-32.34L255.90-32.34Q255.16-34.30 254.06-36.00L254.06-36.00L254.06-36.00Q252.97-37.70 251.45-38.85L251.45-38.85L251.45-38.85Q249.92-40 247.93-40L247.93-40L247.93-40Q246.09-40 244.75-39.06L244.75-39.06L244.75-39.06Q243.40-38.13 242.46-36.62L242.46-36.62L242.46-36.62Q241.52-35.12 240.92-33.22L240.92-33.22L240.92-33.22Q240.31-31.33 239.98-29.39L239.98-29.39L239.98-29.39Q239.65-27.46 239.53-25.68L239.53-25.68L239.53-25.68Q239.41-23.91 239.41-22.62L239.41-22.62L239.41 0L226.17 0L226.17-45.12L231.25-45.12L236.60-34.61L236.60-34.61Q237.70-37.15 239.10-39.28L239.10-39.28L239.10-39.28Q240.51-41.41 242.34-42.95L242.34-42.95L242.34-42.95Q244.18-44.49 246.50-45.35L246.50-45.35L246.50-45.35Q248.83-46.21 251.76-46.21L251.76-46.21L251.76-46.21Q253.28-46.21 255.16-45.96L255.16-45.96L255.16-45.96Q257.03-45.70 258.83-45.10L258.83-45.10L258.83-45.10Q260.63-44.49 262.15-43.52L262.15-43.52L262.15-43.52Q263.67-42.54 264.53-41.13" fill="#51cacc" stroke="none" stroke-width="none" transform="translate(-284.2950134277344,24.33347270618785)" style="fill: rgb(255, 112, 142);"></path></g><g class="path" style="opacity: 1; transform-origin: 9.73px 11.6385px; animation: 1s linear -0.3s infinite normal forwards running fade-2bf65c81-88d0-447f-b577-0457dc66084e;"><path d="M318.01-22.66L318.01-22.66L318.01-22.66Q318.01-17.73 316.52-13.44L316.52-13.44L316.52-13.44Q315.04-9.14 312.23-5.96L312.23-5.96L312.23-5.96Q309.41-2.77 305.35-0.94L305.35-0.94L305.35-0.94Q301.29 0.90 296.13 0.90L296.13 0.90L296.13 0.90Q292.19 0.90 288.89-0.64L288.89-0.64L288.89-0.64Q285.59-2.19 283.24-5.39L283.24-5.39L283.24 20.82L270.04 20.82L270.04-45.12L275.12-45.12L280.98-35.31L280.98-35.31Q281.84-37.77 283.34-39.79L283.34-39.79L283.34-39.79Q284.84-41.80 286.82-43.22L286.82-43.22L286.82-43.22Q288.79-44.65 291.15-45.43L291.15-45.43L291.15-45.43Q293.52-46.21 296.13-46.21L296.13-46.21L296.13-46.21Q301.29-46.21 305.35-44.38L305.35-44.38L305.35-44.38Q309.41-42.54 312.23-39.36L312.23-39.36L312.23-39.36Q315.04-36.17 316.52-31.88L316.52-31.88L316.52-31.88Q318.01-27.58 318.01-22.66zM304.61-22.66L304.61-22.66L304.61-22.66Q304.61-24.38 304.43-26.31L304.43-26.31L304.43-26.31Q304.26-28.24 303.83-30.16L303.83-30.16L303.83-30.16Q303.40-32.07 302.64-33.83L302.64-33.83L302.64-33.83Q301.88-35.59 300.70-36.93L300.70-36.93L300.70-36.93Q299.53-38.28 297.87-39.08L297.87-39.08L297.87-39.08Q296.21-39.88 294.02-39.88L294.02-39.88L294.02-39.88Q291.76-39.88 290.10-39.10L290.10-39.10L290.10-39.10Q288.44-38.32 287.25-36.97L287.25-36.97L287.25-36.97Q286.05-35.63 285.29-33.89L285.29-33.89L285.29-33.89Q284.53-32.15 284.10-30.23L284.10-30.23L284.10-30.23Q283.67-28.32 283.50-26.37L283.50-26.37L283.50-26.37Q283.32-24.41 283.32-22.66L283.32-22.66L283.32-22.66Q283.32-21.09 283.55-19.20L283.55-19.20L283.55-19.20Q283.79-17.30 284.30-15.39L284.30-15.39L284.30-15.39Q284.80-13.48 285.63-11.68L285.63-11.68L285.63-11.68Q286.45-9.88 287.64-8.48L287.64-8.48L287.64-8.48Q288.83-7.07 290.41-6.23L290.41-6.23L290.41-6.23Q291.99-5.39 294.02-5.39L294.02-5.39L294.02-5.39Q296.25-5.39 297.89-6.19L297.89-6.19L297.89-6.19Q299.53-6.99 300.70-8.34L300.70-8.34L300.70-8.34Q301.88-9.69 302.64-11.45L302.64-11.45L302.64-11.45Q303.40-13.20 303.83-15.12L303.83-15.12L303.83-15.12Q304.26-17.03 304.43-18.98L304.43-18.98L304.43-18.98Q304.61-20.94 304.61-22.66" fill="#51cacc" stroke="none" stroke-width="none" transform="translate(-284.2950134277344,24.33347270618785)" style="fill: rgb(81, 202, 204);"></path></g><g class="path" style="opacity: 1; transform-origin: 61.365px 1.22847px; animation: 1s linear -0.24s infinite normal forwards running fade-2bf65c81-88d0-447f-b577-0457dc66084e;"><path d="M364.84-41.13L364.84-41.13L357.42-28.83L357.42-28.83Q356.95-30.39 356.21-32.34L356.21-32.34L356.21-32.34Q355.47-34.30 354.38-36.00L354.38-36.00L354.38-36.00Q353.28-37.70 351.76-38.85L351.76-38.85L351.76-38.85Q350.23-40 348.24-40L348.24-40L348.24-40Q346.41-40 345.06-39.06L345.06-39.06L345.06-39.06Q343.71-38.13 342.77-36.62L342.77-36.62L342.77-36.62Q341.84-35.12 341.23-33.22L341.23-33.22L341.23-33.22Q340.63-31.33 340.29-29.39L340.29-29.39L340.29-29.39Q339.96-27.46 339.84-25.68L339.84-25.68L339.84-25.68Q339.73-23.91 339.73-22.62L339.73-22.62L339.73 0L326.48 0L326.48-45.12L331.56-45.12L336.91-34.61L336.91-34.61Q338.01-37.15 339.41-39.28L339.41-39.28L339.41-39.28Q340.82-41.41 342.66-42.95L342.66-42.95L342.66-42.95Q344.49-44.49 346.82-45.35L346.82-45.35L346.82-45.35Q349.14-46.21 352.07-46.21L352.07-46.21L352.07-46.21Q353.59-46.21 355.47-45.96L355.47-45.96L355.47-45.96Q357.34-45.70 359.14-45.10L359.14-45.10L359.14-45.10Q360.94-44.49 362.46-43.52L362.46-43.52L362.46-43.52Q363.98-42.54 364.84-41.13" fill="#51cacc" stroke="none" stroke-width="none" transform="translate(-284.2950134277344,24.33347270618785)" style="fill: rgb(157, 248, 113);"></path></g><g class="path" style="opacity: 1; transform-origin: 106.6px 1.67847px; animation: 1s linear -0.18s infinite normal forwards running fade-2bf65c81-88d0-447f-b577-0457dc66084e;"><path d="M414.88-45.12L414.88 0L401.68 0L401.68-5.39L401.68-5.39Q399.34-2.19 396.04-0.64L396.04-0.64L396.04-0.64Q392.73 0.90 388.79 0.90L388.79 0.90L388.79 0.90Q383.63 0.90 379.57-0.94L379.57-0.94L379.57-0.94Q375.51-2.77 372.70-5.96L372.70-5.96L372.70-5.96Q369.88-9.14 368.40-13.44L368.40-13.44L368.40-13.44Q366.91-17.73 366.91-22.66L366.91-22.66L366.91-22.66Q366.91-27.58 368.40-31.88L368.40-31.88L368.40-31.88Q369.88-36.17 372.70-39.36L372.70-39.36L372.70-39.36Q375.51-42.54 379.57-44.38L379.57-44.38L379.57-44.38Q383.63-46.21 388.79-46.21L388.79-46.21L388.79-46.21Q391.41-46.21 393.77-45.43L393.77-45.43L393.77-45.43Q396.13-44.65 398.11-43.22L398.11-43.22L398.11-43.22Q400.08-41.80 401.58-39.79L401.58-39.79L401.58-39.79Q403.09-37.77 403.95-35.31L403.95-35.31L409.80-45.12L414.88-45.12zM401.60-22.66L401.60-22.66L401.60-22.66Q401.60-24.41 401.43-26.37L401.43-26.37L401.43-26.37Q401.25-28.32 400.82-30.23L400.82-30.23L400.82-30.23Q400.39-32.15 399.63-33.89L399.63-33.89L399.63-33.89Q398.87-35.63 397.68-36.97L397.68-36.97L397.68-36.97Q396.48-38.32 394.80-39.10L394.80-39.10L394.80-39.10Q393.13-39.88 390.90-39.88L390.90-39.88L390.90-39.88Q388.67-39.88 387.03-39.08L387.03-39.08L387.03-39.08Q385.39-38.28 384.22-36.93L384.22-36.93L384.22-36.93Q383.05-35.59 382.29-33.83L382.29-33.83L382.29-33.83Q381.52-32.07 381.09-30.16L381.09-30.16L381.09-30.16Q380.66-28.24 380.49-26.31L380.49-26.31L380.49-26.31Q380.31-24.38 380.31-22.66L380.31-22.66L380.31-22.66Q380.31-20.94 380.49-18.98L380.49-18.98L380.49-18.98Q380.66-17.03 381.09-15.12L381.09-15.12L381.09-15.12Q381.52-13.20 382.29-11.45L382.29-11.45L382.29-11.45Q383.05-9.69 384.22-8.34L384.22-8.34L384.22-8.34Q385.39-6.99 387.03-6.19L387.03-6.19L387.03-6.19Q388.67-5.39 390.90-5.39L390.90-5.39L390.90-5.39Q392.93-5.39 394.51-6.23L394.51-6.23L394.51-6.23Q396.09-7.07 397.29-8.48L397.29-8.48L397.29-8.48Q398.48-9.88 399.30-11.68L399.30-11.68L399.30-11.68Q400.12-13.48 400.63-15.39L400.63-15.39L400.63-15.39Q401.13-17.30 401.37-19.20L401.37-19.20L401.37-19.20Q401.60-21.09 401.60-22.66" fill="#51cacc" stroke="none" stroke-width="none" transform="translate(-284.2950134277344,24.33347270618785)" style="fill: rgb(224, 255, 119);"></path></g><g class="path" style="opacity: 1; transform-origin: 159.595px 1.67847px; animation: 1s linear -0.12s infinite normal forwards running fade-2bf65c81-88d0-447f-b577-0457dc66084e;"><path d="M464.73-14.41L464.73-14.41L464.73-14.41Q464.73-11.45 463.87-9.14L463.87-9.14L463.87-9.14Q463.01-6.84 461.52-5.14L461.52-5.14L461.52-5.14Q460.04-3.44 458.01-2.29L458.01-2.29L458.01-2.29Q455.98-1.13 453.65-0.43L453.65-0.43L453.65-0.43Q451.33 0.27 448.79 0.59L448.79 0.59L448.79 0.59Q446.25 0.90 443.75 0.90L443.75 0.90L443.75 0.90Q440.39 0.90 437.81 0.47L437.81 0.47L437.81 0.47Q435.23 0.04 432.89-0.92L432.89-0.92L432.89-0.92Q430.55-1.88 428.22-3.40L428.22-3.40L428.22-3.40Q425.90-4.92 423.05-7.11L423.05-7.11L430.74-13.40L430.74-13.40Q431.80-11.41 433.54-9.79L433.54-9.79L433.54-9.79Q435.27-8.16 437.15-6.99L437.15-6.99L437.15-6.99Q439.02-5.82 440.78-5.20L440.78-5.20L440.78-5.20Q442.54-4.57 443.63-4.57L443.63-4.57L443.63-4.57Q444.53-4.57 445.66-4.63L445.66-4.63L445.66-4.63Q446.80-4.69 447.97-4.86L447.97-4.86L447.97-4.86Q449.14-5.04 450.27-5.39L450.27-5.39L450.27-5.39Q451.41-5.74 452.29-6.35L452.29-6.35L452.29-6.35Q453.16-6.95 453.69-7.87L453.69-7.87L453.69-7.87Q454.22-8.79 454.22-10.08L454.22-10.08L454.22-10.08Q454.22-11.41 453.54-12.40L453.54-12.40L453.54-12.40Q452.85-13.40 451.76-14.14L451.76-14.14L451.76-14.14Q450.66-14.88 449.26-15.39L449.26-15.39L449.26-15.39Q447.85-15.90 446.43-16.29L446.43-16.29L446.43-16.29Q445-16.68 443.67-16.97L443.67-16.97L443.67-16.97Q442.34-17.27 441.37-17.54L441.37-17.54L441.37-17.54Q439.57-18.05 437.58-18.57L437.58-18.57L437.58-18.57Q435.59-19.10 433.63-19.79L433.63-19.79L433.63-19.79Q431.68-20.47 429.90-21.41L429.90-21.41L429.90-21.41Q428.13-22.34 426.78-23.65L426.78-23.65L426.78-23.65Q425.43-24.96 424.63-26.74L424.63-26.74L424.63-26.74Q423.83-28.52 423.83-30.90L423.83-30.90L423.83-30.90Q423.83-35.27 425.57-38.22L425.57-38.22L425.57-38.22Q427.30-41.17 430.16-42.95L430.16-42.95L430.16-42.95Q433.01-44.73 436.64-45.47L436.64-45.47L436.64-45.47Q440.27-46.21 444.02-46.21L444.02-46.21L444.02-46.21Q446.60-46.21 449.45-45.68L449.45-45.68L449.45-45.68Q452.30-45.16 455-44.12L455-44.12L455-44.12Q457.70-43.09 460.04-41.60L460.04-41.60L460.04-41.60Q462.38-40.12 463.95-38.20L463.95-38.20L456.25-31.88L456.25-31.88Q455.39-34.22 454.00-35.90L454.00-35.90L454.00-35.90Q452.62-37.58 451.00-38.65L451.00-38.65L451.00-38.65Q449.38-39.73 447.68-40.23L447.68-40.23L447.68-40.23Q445.98-40.74 444.53-40.74L444.53-40.74L444.53-40.74Q443.13-40.74 441.37-40.63L441.37-40.63L441.37-40.63Q439.61-40.51 438.07-39.96L438.07-39.96L438.07-39.96Q436.52-39.41 435.45-38.30L435.45-38.30L435.45-38.30Q434.38-37.19 434.38-35.23L434.38-35.23L434.38-35.23Q434.38-33.83 435.02-32.83L435.02-32.83L435.02-32.83Q435.66-31.84 436.72-31.11L436.72-31.11L436.72-31.11Q437.77-30.39 439.12-29.90L439.12-29.90L439.12-29.90Q440.47-29.41 441.88-29.04L441.88-29.04L441.88-29.04Q443.28-28.67 444.61-28.40L444.61-28.40L444.61-28.40Q445.94-28.13 446.99-27.81L446.99-27.81L446.99-27.81Q448.79-27.30 450.80-26.78L450.80-26.78L450.80-26.78Q452.81-26.25 454.77-25.57L454.77-25.57L454.77-25.57Q456.72-24.88 458.54-23.96L458.54-23.96L458.54-23.96Q460.35-23.05 461.72-21.72L461.72-21.72L461.72-21.72Q463.09-20.39 463.91-18.61L463.91-18.61L463.91-18.61Q464.73-16.84 464.73-14.41" fill="#51cacc" stroke="none" stroke-width="none" transform="translate(-284.2950134277344,24.33347270618785)" style="fill: rgb(222, 157, 214);"></path></g><g class="path" style="opacity: 1; transform-origin: 210.2px 1.67847px; animation: 1s linear -0.06s infinite normal forwards running fade-2bf65c81-88d0-447f-b577-0457dc66084e;"><path d="M518.48-45.12L518.48 0L505.27 0L505.27-5.39L505.27-5.39Q502.93-2.19 499.63-0.64L499.63-0.64L499.63-0.64Q496.33 0.90 492.38 0.90L492.38 0.90L492.38 0.90Q487.23 0.90 483.16-0.94L483.16-0.94L483.16-0.94Q479.10-2.77 476.29-5.96L476.29-5.96L476.29-5.96Q473.48-9.14 471.99-13.44L471.99-13.44L471.99-13.44Q470.51-17.73 470.51-22.66L470.51-22.66L470.51-22.66Q470.51-27.58 471.99-31.88L471.99-31.88L471.99-31.88Q473.48-36.17 476.29-39.36L476.29-39.36L476.29-39.36Q479.10-42.54 483.16-44.38L483.16-44.38L483.16-44.38Q487.23-46.21 492.38-46.21L492.38-46.21L492.38-46.21Q495-46.21 497.36-45.43L497.36-45.43L497.36-45.43Q499.73-44.65 501.70-43.22L501.70-43.22L501.70-43.22Q503.67-41.80 505.18-39.79L505.18-39.79L505.18-39.79Q506.68-37.77 507.54-35.31L507.54-35.31L513.40-45.12L518.48-45.12zM505.20-22.66L505.20-22.66L505.20-22.66Q505.20-24.41 505.02-26.37L505.02-26.37L505.02-26.37Q504.84-28.32 504.41-30.23L504.41-30.23L504.41-30.23Q503.98-32.15 503.22-33.89L503.22-33.89L503.22-33.89Q502.46-35.63 501.27-36.97L501.27-36.97L501.27-36.97Q500.08-38.32 498.40-39.10L498.40-39.10L498.40-39.10Q496.72-39.88 494.49-39.88L494.49-39.88L494.49-39.88Q492.27-39.88 490.63-39.08L490.63-39.08L490.63-39.08Q488.98-38.28 487.81-36.93L487.81-36.93L487.81-36.93Q486.64-35.59 485.88-33.83L485.88-33.83L485.88-33.83Q485.12-32.07 484.69-30.16L484.69-30.16L484.69-30.16Q484.26-28.24 484.08-26.31L484.08-26.31L484.08-26.31Q483.91-24.38 483.91-22.66L483.91-22.66L483.91-22.66Q483.91-20.94 484.08-18.98L484.08-18.98L484.08-18.98Q484.26-17.03 484.69-15.12L484.69-15.12L484.69-15.12Q485.12-13.20 485.88-11.45L485.88-11.45L485.88-11.45Q486.64-9.69 487.81-8.34L487.81-8.34L487.81-8.34Q488.98-6.99 490.63-6.19L490.63-6.19L490.63-6.19Q492.27-5.39 494.49-5.39L494.49-5.39L494.49-5.39Q496.52-5.39 498.11-6.23L498.11-6.23L498.11-6.23Q499.69-7.07 500.88-8.48L500.88-8.48L500.88-8.48Q502.07-9.88 502.89-11.68L502.89-11.68L502.89-11.68Q503.71-13.48 504.22-15.39L504.22-15.39L504.22-15.39Q504.73-17.30 504.96-19.20L504.96-19.20L504.96-19.20Q505.20-21.09 505.20-22.66" fill="#51cacc" stroke="none" stroke-width="none" transform="translate(-284.2950134277344,24.33347270618785)" style="fill: rgb(255, 112, 142);"></path></g><g class="path" style="opacity: 1; transform-origin: 266.68px -6.00153px; animation: 1s linear 0s infinite normal forwards running fade-2bf65c81-88d0-447f-b577-0457dc66084e;"><path d="M574.96-61.72L574.96 0L569.88 0L564.02-9.80L564.02-9.80Q563.16-7.34 561.66-5.35L561.66-5.35L561.66-5.35Q560.16-3.36 558.18-1.93L558.18-1.93L558.18-1.93Q556.21-0.51 553.85 0.27L553.85 0.27L553.85 0.27Q551.48 1.05 548.87 1.05L548.87 1.05L548.87 1.05Q543.71 1.05 539.65-0.78L539.65-0.78L539.65-0.78Q535.59-2.62 532.77-5.80L532.77-5.80L532.77-5.80Q529.96-8.98 528.48-13.28L528.48-13.28L528.48-13.28Q526.99-17.58 526.99-22.50L526.99-22.50L526.99-22.50Q526.99-27.42 528.48-31.72L528.48-31.72L528.48-31.72Q529.96-36.02 532.77-39.18L532.77-39.18L532.77-39.18Q535.59-42.34 539.65-44.18L539.65-44.18L539.65-44.18Q543.71-46.02 548.87-46.02L548.87-46.02L548.87-46.02Q552.81-46.02 556.11-44.49L556.11-44.49L556.11-44.49Q559.41-42.97 561.76-39.73L561.76-39.73L561.76-61.72L574.96-61.72zM561.68-22.50L561.68-22.50L561.68-22.50Q561.68-24.06 561.45-25.94L561.45-25.94L561.45-25.94Q561.21-27.81 560.70-29.73L560.70-29.73L560.70-29.73Q560.20-31.64 559.38-33.44L559.38-33.44L559.38-33.44Q558.55-35.23 557.36-36.64L557.36-36.64L557.36-36.64Q556.17-38.05 554.59-38.89L554.59-38.89L554.59-38.89Q553.01-39.73 550.98-39.73L550.98-39.73L550.98-39.73Q548.75-39.73 547.11-38.93L547.11-38.93L547.11-38.93Q545.47-38.13 544.30-36.78L544.30-36.78L544.30-36.78Q543.13-35.43 542.36-33.67L542.36-33.67L542.36-33.67Q541.60-31.91 541.17-30L541.17-30L541.17-30Q540.74-28.09 540.57-26.15L540.57-26.15L540.57-26.15Q540.39-24.22 540.39-22.50L540.39-22.50L540.39-22.50Q540.39-20.78 540.57-18.85L540.57-18.85L540.57-18.85Q540.74-16.91 541.17-15L541.17-15L541.17-15Q541.60-13.09 542.36-11.31L542.36-11.31L542.36-11.31Q543.13-9.53 544.30-8.18L544.30-8.18L544.30-8.18Q545.47-6.84 547.11-6.04L547.11-6.04L547.11-6.04Q548.75-5.23 550.98-5.23L550.98-5.23L550.98-5.23Q553.20-5.23 554.88-6.02L554.88-6.02L554.88-6.02Q556.56-6.80 557.75-8.14L557.75-8.14L557.75-8.14Q558.95-9.49 559.71-11.23L559.71-11.23L559.71-11.23Q560.47-12.97 560.90-14.90L560.90-14.90L560.90-14.90Q561.33-16.84 561.50-18.79L561.50-18.79L561.50-18.79Q561.68-20.74 561.68-22.50" fill="#51cacc" stroke="none" stroke-width="none" transform="translate(-284.2950134277344,24.33347270618785)" style="fill: rgb(81, 202, 204);"></path></g></g>
</g>
</g>
<style id="fade-2bf65c81-88d0-447f-b577-0457dc66084e" data-anikit="">@keyframes fade-2bf65c81-88d0-447f-b577-0457dc66084e
{
  0% {
    animation-timing-function: cubic-bezier(0.2057,0.573,0.3723,0.9184);
    opacity: 1;
  }
  100% {
    opacity: 0;
  }
}</style></svg>